<svg width="720" height="1440" viewBox="0 0 720 1440" fill="none" xmlns="http://www.w3.org/2000/svg">
  <defs>
    <linearGradient id="bg" x1="0" y1="0" x2="720" y2="1440" gradientUnits="userSpaceOnUse">
      <stop stop-color="#001538"/>
      <stop offset=".55" stop-color="#002B63"/>
      <stop offset="1" stop-color="#006BA6"/>
    </linearGradient>
  </defs>
  <rect width="720" height="1440" rx="82" fill="url(#bg)"/>
  <text x="58" y="142" fill="white" font-family="-apple-system, BlinkMacSystemFont, Segoe UI, sans-serif" font-size="54" font-weight="750">Sök</text>
  <rect x="48" y="186" width="624" height="70" rx="26" fill="white" fill-opacity=".13" stroke="white" stroke-opacity=".14"/>
  <text x="84" y="230" fill="white" opacity=".60" font-family="-apple-system, BlinkMacSystemFont, Segoe UI, sans-serif" font-size="25">Svenska, suomeksi, område</text>
  <g font-family="-apple-system, BlinkMacSystemFont, Segoe UI, sans-serif">
    <rect x="48" y="302" width="624" height="126" rx="30" fill="white" fill-opacity=".09"/>
    <rect x="76" y="330" width="6" height="70" rx="3" fill="#FDD000"/>
    <text x="106" y="352" fill="white" font-size="31" font-weight="740">materialitet</text>
    <text x="106" y="388" fill="#FDD000" font-size="23" font-weight="600">materiaalisuus</text>
    <text x="106" y="418" fill="white" opacity=".62" font-size="20">Materialens betydelse.</text>
    <rect x="48" y="458" width="624" height="126" rx="30" fill="white" fill-opacity=".09"/>
    <rect x="76" y="486" width="6" height="70" rx="3" fill="#FDD000"/>
    <text x="106" y="508" fill="white" font-size="31" font-weight="740">intraaktion</text>
    <text x="106" y="544" fill="#FDD000" font-size="23" font-weight="600">intra-aktio</text>
    <text x="106" y="574" fill="white" opacity=".62" font-size="20">Relationer som skapar fenomen.</text>
    <rect x="48" y="614" width="624" height="126" rx="30" fill="white" fill-opacity=".09"/>
    <rect x="76" y="642" width="6" height="70" rx="3" fill="#FDD000"/>
    <text x="106" y="664" fill="white" font-size="31" font-weight="740">affektivitet</text>
    <text x="106" y="700" fill="#FDD000" font-size="23" font-weight="600">affektiivisuus</text>
    <text x="106" y="730" fill="white" opacity=".62" font-size="20">Hur stämningar och kroppar verkar.</text>
  </g>
  <rect x="244" y="1272" width="232" height="58" rx="29" fill="white" fill-opacity=".16" stroke="white" stroke-opacity=".18"/>
  <text x="282" y="1308" fill="white" opacity=".82" font-family="-apple-system, BlinkMacSystemFont, Segoe UI, sans-serif" font-size="18" font-weight="700">Idag</text>
  <rect x="362" y="1281" width="104" height="40" rx="20" fill="#FDD000"/>
  <text x="397" y="1308" fill="#002B63" font-family="-apple-system, BlinkMacSystemFont, Segoe UI, sans-serif" font-size="18" font-weight="700">Sök</text>
</svg>
